<svg width="58" height="66" viewBox="0 0 58 66" fill="none" xmlns="http://www.w3.org/2000/svg">
<path d="M27 1.1547C28.2376 0.440169 29.7624 0.440169 31 1.1547L55.5788 15.3453C56.8164 16.0598 57.5788 17.3803 57.5788 18.8094V47.1906C57.5788 48.6197 56.8164 49.9402 55.5788 50.6547L31 64.8453C29.7624 65.5598 28.2376 65.5598 27 64.8453L2.42116 50.6547C1.18356 49.9402 0.421162 48.6197 0.421162 47.1906V18.8094C0.421162 17.3803 1.18356 16.0598 2.42116 15.3453L27 1.1547Z" fill="url(#paint0_radial_33_408)"/>
<path d="M27.5 2.02073C28.4282 1.48483 29.5718 1.48483 30.5 2.02073L55.0788 16.2113C56.007 16.7472 56.5788 17.7376 56.5788 18.8094V47.1906C56.5788 48.2624 56.007 49.2528 55.0788 49.7887L30.5 63.9793C29.5718 64.5152 28.4282 64.5152 27.5 63.9793L2.92116 49.7887C1.99296 49.2528 1.42116 48.2624 1.42116 47.1906V18.8094C1.42116 17.7376 1.99296 16.7472 2.92116 16.2113L27.5 2.02073Z" stroke="white" stroke-opacity="0.09" stroke-width="2"/>
<defs>
<radialGradient id="paint0_radial_33_408" cx="0" cy="0" r="1" gradientUnits="userSpaceOnUse" gradientTransform="translate(12.2609 74.6087) rotate(-61.0278) scale(96.7613 9877.36)">
<stop offset="0.0001" stop-color="white" stop-opacity="0.65"/>
<stop offset="1" stop-color="white" stop-opacity="0"/>
</radialGradient>
</defs>
</svg>
