<svg width="45" height="45" viewBox="0 0 45 45" fill="none" xmlns="http://www.w3.org/2000/svg">
<g clip-path="url(#clip_color)" >
<path fill="#02e1a4" d="M36.9001 23.2412C36.9001 22.3412 36.2119 21.653 35.3119 21.653C34.4119 21.653 33.7236 22.3412 33.7236 23.2412C33.7236 29.4353 28.6942 34.4647 22.5001 34.4647C16.306 34.4647 11.2766 29.4353 11.2766 23.2412C11.2766 22.3412 10.5883 21.653 9.68833 21.653C8.78833 21.653 8.1001 22.3412 8.1001 23.2412C8.1001 30.6 13.606 36.7941 20.9119 37.5882V41.8235H15.1413C14.2413 41.8235 13.553 42.5118 13.553 43.4118C13.553 44.3118 14.2413 45 15.1413 45H29.8589C30.7589 45 31.4472 44.3118 31.4472 43.4118C31.4472 42.5118 30.7589 41.8235 29.8589 41.8235H24.0883V37.5882C31.3942 36.7941 36.9001 30.6 36.9001 23.2412Z" />
<path fill="url(#mic_paint_high)" d="M22.4999 0C17.6293 0 13.6587 3.97059 13.6587 8.84118V23.1882C13.6587 28.1118 17.6293 32.0294 22.4999 32.0824C27.3705 32.0824 31.341 28.1118 31.341 23.2412V8.84118C31.341 3.97059 27.3705 0 22.4999 0Z" />
</g>
<g clip-path="url(#clip_bg)" fill="white" opacity="0.6">
<path d="M36.9001 23.2412C36.9001 22.3412 36.2119 21.653 35.3119 21.653C34.4119 21.653 33.7236 22.3412 33.7236 23.2412C33.7236 29.4353 28.6942 34.4647 22.5001 34.4647C16.306 34.4647 11.2766 29.4353 11.2766 23.2412C11.2766 22.3412 10.5883 21.653 9.68833 21.653C8.78833 21.653 8.1001 22.3412 8.1001 23.2412C8.1001 30.6 13.606 36.7941 20.9119 37.5882V41.8235H15.1413C14.2413 41.8235 13.553 42.5118 13.553 43.4118C13.553 44.3118 14.2413 45 15.1413 45H29.8589C30.7589 45 31.4472 44.3118 31.4472 43.4118C31.4472 42.5118 30.7589 41.8235 29.8589 41.8235H24.0883V37.5882C31.3942 36.7941 36.9001 30.6 36.9001 23.2412Z" />
<path d="M22.4999 0C17.6293 0 13.6587 3.97059 13.6587 8.84118V23.1882C13.6587 28.1118 17.6293 32.0294 22.4999 32.0824C27.3705 32.0824 31.341 28.1118 31.341 23.2412V8.84118C31.341 3.97059 27.3705 0 22.4999 0Z" />
</g>
<defs>
<clipPath id="clip_bg">
<rect width="45" height="45" fill="white" />
</clipPath>
<clipPath id="clip_color">
<rect width="45" height="45" fill="white"/>
</clipPath>
<linearGradient id="mic_paint_high" gradientTransform="rotate(90)">
    <stop offset="0%" style="stop-color:#02e1a4; stop-opacity: 0;"/>
    <stop offset="0%" style="stop-color:#02e1a4; stop-opacity: 1;"/>
</linearGradient>
</defs>
</svg>
