<svg width="18" height="17" viewBox="0 0 18 17" fill="none" xmlns="http://www.w3.org/2000/svg">
<path fill-rule="evenodd" clip-rule="evenodd" d="M16.7889 0.0416184C16.4392 0.168645 16.2007 0.514727 16.2036 0.891001C16.2085 1.54564 16.8939 1.9565 17.4971 1.66637C18.1674 1.34398 18.1677 0.423253 17.4976 0.0839492C17.3162 -0.00790582 16.9805 -0.0279645 16.7889 0.0416184ZM5.14833 0.606513C4.57806 0.86527 4.62573 1.69753 5.22189 1.89096C5.79726 2.07765 6.33858 1.48014 6.08447 0.938865C5.9224 0.593682 5.504 0.445144 5.14833 0.606513ZM1.48843 1.97542C1.06015 2.0671 0.659373 2.32011 0.391371 2.66806C0.0247935 3.14397 -0.0852852 3.6821 0.0654266 4.26142C0.305496 5.18412 1.24558 5.78505 2.20118 5.62659C3.20093 5.46082 3.9109 4.50887 3.76314 3.53221C3.60167 2.46502 2.5533 1.74754 1.48843 1.97542ZM14.6708 1.96151C13.5449 2.17932 13.1183 3.55487 13.9293 4.35217C14.1903 4.60871 14.5003 4.73971 14.8826 4.75497C15.358 4.77388 15.7749 4.59851 16.0508 4.26356C16.755 3.40858 16.2921 2.16414 15.1937 1.95937C14.9804 1.9196 14.8854 1.91998 14.6708 1.96151ZM7.64605 3.22245C4.81904 3.62846 2.54429 5.62368 1.80801 8.34302C1.66964 8.85417 1.61145 9.25282 1.58894 9.84424C1.51622 11.7549 2.24748 13.5787 3.63502 14.9472C6.36915 17.6439 10.714 17.6893 13.499 15.0502C14.5791 14.0268 15.279 12.7275 15.5677 11.2103C15.643 10.8149 15.6686 9.79378 15.6152 9.31815C15.5654 8.87405 15.3864 8.12628 15.232 7.71732C14.8654 6.74617 14.3295 5.9238 13.5887 5.1955C12.4931 4.11852 11.1024 3.43673 9.56344 3.22227C9.10958 3.15902 8.087 3.15912 7.64605 3.22245ZM9.48467 4.46792C10.7235 4.6609 11.8139 5.20594 12.696 6.07306C13.51 6.87327 14.0259 7.81679 14.2798 8.96968C14.3864 9.45396 14.4122 10.388 14.3325 10.8818C14.1258 12.1631 13.6209 13.1578 12.7196 14.0591C11.1715 15.6072 8.88337 16.1476 6.7899 15.4594C4.17243 14.5989 2.53877 12.0332 2.89711 9.34582C3.22985 6.85062 5.16863 4.88884 7.71648 4.46934C8.11725 4.40335 9.06522 4.40259 9.48467 4.46792ZM6.06593 7.18248C5.44746 7.27852 4.97309 7.48482 4.61644 7.81278C4.07709 8.30878 3.84124 8.86548 3.80378 9.73105C3.76335 10.6652 3.98611 11.3648 4.49186 11.892C4.94365 12.3629 5.43589 12.5733 6.25084 12.6435C7.30927 12.7348 8.09136 12.5067 8.6674 11.9385C9.11799 11.4942 9.31799 11.026 9.38641 10.2558C9.42553 9.81585 9.39211 9.31424 9.30025 8.96235C9.13294 8.3212 8.65811 7.73538 8.08587 7.46414C7.9214 7.38618 7.65227 7.29032 7.48781 7.2511C7.1422 7.16868 6.38885 7.13234 6.06593 7.18248ZM7.07342 8.50207C7.26287 8.58217 7.50188 8.81903 7.58367 9.00765C7.79078 9.48543 7.77868 10.3702 7.5581 10.8743C7.46564 11.0856 7.31338 11.2342 7.08324 11.3379C6.83187 11.4511 6.38519 11.4499 6.12486 11.3352C5.67948 11.1389 5.48043 10.7086 5.47972 9.94056C5.4792 9.38804 5.54822 9.08522 5.73643 8.81426C6.00145 8.43269 6.58639 8.29609 7.07342 8.50207ZM10.6792 9.01734C10.1508 9.09335 9.82965 9.38652 9.705 9.90663C9.68083 10.0075 9.6668 10.0955 9.6738 10.1022C9.70046 10.1276 10.6186 10.1943 10.653 10.1734C10.6729 10.1613 10.6892 10.1217 10.6892 10.0855C10.6892 9.97217 10.7985 9.7878 10.901 9.72831C11.094 9.61623 11.4047 9.68066 11.4876 9.84995C11.5583 9.9944 11.565 10.0447 11.5301 10.1691C11.4781 10.3541 11.3581 10.4731 10.7219 10.9701C9.95879 11.5664 9.83943 11.7138 9.66648 12.2738L9.60506 12.4726H10.9563H12.3075V12.1614V11.8501H11.6889H11.0703L11.1836 11.7094C11.246 11.6321 11.4491 11.4547 11.6351 11.3152C12.2615 10.8455 12.4975 10.5369 12.5407 10.1304C12.5852 9.7114 12.3658 9.3223 11.9808 9.13762C11.7068 9.00617 11.1284 8.95273 10.6792 9.01734Z" fill="white"/>
</svg>
