<svg width="19" height="20" viewBox="0 0 19 20" fill="none" xmlns="http://www.w3.org/2000/svg">
<path d="M14.9923 11.4788L15.0261 8.64766L17.7668 11.3838C17.9043 11.5211 18.0858 11.591 18.2681 11.5932C18.4504 11.5953 18.6335 11.5298 18.7743 11.3958C19.0557 11.128 19.0609 10.6884 18.786 10.414L15.0496 6.68387L15.0546 6.26554L15.0943 2.9442C15.1079 1.80336 14.0964 0.863028 12.8397 0.848009L7.3778 0.782736C6.12104 0.767717 5.08738 1.68361 5.07375 2.82445L5.03405 6.14579L5.02905 6.56412L1.20455 10.2039C0.923137 10.4717 0.917883 10.9113 1.19282 11.1857C1.33033 11.3229 1.51187 11.3929 1.69412 11.3951C1.87637 11.3973 2.05953 11.3317 2.20028 11.1977L5.00559 8.52791L4.97175 11.3591L1.14725 14.999C0.865833 15.2668 0.860579 15.7064 1.13561 15.9809C1.27303 16.1181 1.45456 16.1881 1.63682 16.1903C1.81907 16.1924 2.00222 16.1269 2.14298 15.9929L4.94828 13.323L4.92065 15.6354L4.89615 17.6852C4.88252 18.826 5.89399 19.7664 7.15076 19.7814L12.6126 19.8467C13.8694 19.8617 14.903 18.9458 14.9167 17.8049L14.9412 15.7551L14.9688 13.4426L17.7095 16.1788C17.847 16.3161 18.0285 16.3861 18.2108 16.3882C18.3931 16.3904 18.5762 16.3248 18.7169 16.1909C18.9984 15.9231 19.0036 15.4835 18.7287 15.209L14.9923 11.4788ZM13.5643 11.7496L13.5249 15.0438L6.35353 14.958L6.3929 11.6639C6.3929 11.6637 6.3929 11.6636 6.3929 11.6635L6.4502 6.86922C6.4502 6.86895 6.4502 6.86858 6.45021 6.8683L6.45034 6.8571L13.6217 6.9428L13.6216 6.954C13.6216 6.95428 13.6216 6.95465 13.6216 6.95493L13.5643 11.7492C13.5643 11.7493 13.5643 11.7494 13.5643 11.7496ZM7.36121 2.1713L12.8231 2.23657C13.2864 2.24211 13.6741 2.55838 13.6697 2.92718L13.6383 5.55424L6.46693 5.46854L6.49833 2.84148C6.50274 2.47267 6.89784 2.16576 7.36121 2.1713ZM12.6292 18.4579L7.16736 18.3926C6.70399 18.3871 6.31633 18.0708 6.32074 17.702L6.33693 16.3466L13.5083 16.4323L13.4921 17.7878C13.4877 18.1566 13.0926 18.4634 12.6292 18.4579Z" fill="white" fill-opacity="0.35"/>
</svg>
