<svg width="22" height="22" viewBox="0 0 22 22" fill="none" xmlns="http://www.w3.org/2000/svg">
<path d="M18.7773 7.77734C18.4214 7.77734 18.1328 8.06592 18.1328 8.42188V9.06641H16.8438V8.42188C16.8438 8.06592 16.5552 7.77734 16.1992 7.77734H15.1771L14.0768 6.67704C13.9559 6.55617 13.7921 6.48828 13.6211 6.48828H12.9766V5.19922H13.6211C13.977 5.19922 14.2656 4.91064 14.2656 4.55469C14.2656 4.19873 13.977 3.91016 13.6211 3.91016H7.08984C6.73389 3.91016 6.44531 4.19873 6.44531 4.55469C6.44531 4.91064 6.73389 5.19922 7.08984 5.19922H7.73438V6.48828H7.08984C6.91887 6.48828 6.75499 6.55617 6.63412 6.67704L5.53382 7.77734H3.22266C2.8667 7.77734 2.57812 8.06592 2.57812 8.42188V11H1.28906V8.42188C1.28906 8.06592 1.00048 7.77734 0.644531 7.77734C0.288578 7.77734 0 8.06592 0 8.42188V14.8672C0 15.2231 0.288578 15.5117 0.644531 15.5117C1.00048 15.5117 1.28906 15.2231 1.28906 14.8672V12.2891H2.57812V14.8672C2.57812 15.2231 2.8667 15.5117 3.22266 15.5117H5.53382L7.92318 17.9011C8.04405 18.022 8.20793 18.0898 8.37891 18.0898H14.9102C15.1543 18.0898 15.3774 17.9519 15.4867 17.7335L16.5976 15.5117H18.1328V16.1562C18.1328 16.5122 18.4214 16.8008 18.7773 16.8008C20.5543 16.8008 22 15.3551 22 13.5781V11C22 9.22303 20.5543 7.77734 18.7773 7.77734ZM5.15625 14.2227H3.86719V9.06641H5.15625V14.2227ZM9.02344 5.19922H11.6875V6.48828H9.02344V5.19922ZM15.5547 14.715L14.5118 16.8008H8.64587L6.44531 14.6002V8.68884L7.35681 7.77734C7.61896 7.77734 13.123 7.77734 13.3541 7.77734L14.4544 8.87764C14.5753 8.99852 14.7392 9.06641 14.9102 9.06641H15.5547C15.5547 9.32993 15.5547 14.5053 15.5547 14.715ZM18.1328 14.2227H16.8438V10.3555H18.1328V14.2227ZM20.7109 13.5781C20.7109 14.4184 20.1722 15.1353 19.4219 15.4013C19.4219 14.9487 19.4219 9.34751 19.4219 9.17688C20.1722 9.4429 20.7109 10.1597 20.7109 11V13.5781Z" fill="#02E1A4"/>
<path d="M12.3317 11.6446H10.7964L11.6191 9.99922C11.7783 9.68082 11.6492 9.29367 11.3309 9.13447C11.0125 8.97527 10.6253 9.10435 10.4661 9.42271L9.17707 12.0008C8.9633 12.4284 9.27448 12.9336 9.75353 12.9336H11.2888L10.4661 14.579C10.3069 14.8974 10.436 15.2846 10.7543 15.4438C11.0728 15.603 11.46 15.4738 11.6191 15.1555L12.9081 12.5774C13.1219 12.1499 12.8107 11.6446 12.3317 11.6446Z" fill="#02E1A4"/>
</svg>
