<?xml version="1.0" encoding="UTF-8" standalone="no"?>
<svg
   viewBox="0 0 512 512"
   version="1.1"
   id="svg19"
   sodipodi:docname="gas-pump.svg"
   inkscape:version="1.1.2 (b8e25be833, 2022-02-05)"
   xmlns:inkscape="http://www.inkscape.org/namespaces/inkscape"
   xmlns:sodipodi="http://sodipodi.sourceforge.net/DTD/sodipodi-0.dtd"
   xmlns="http://www.w3.org/2000/svg"
   xmlns:svg="http://www.w3.org/2000/svg">
  <defs
     id="defs23">
    <inkscape:path-effect
       effect="spiro"
       id="path-effect357"
       is_visible="true"
       lpeversion="1" />
    <inkscape:path-effect
       effect="spiro"
       id="path-effect353"
       is_visible="true"
       lpeversion="1" />
    <inkscape:path-effect
       effect="spiro"
       id="path-effect343"
       is_visible="true"
       lpeversion="1" />
    <inkscape:path-effect
       effect="spiro"
       id="path-effect339"
       is_visible="true"
       lpeversion="1" />
    <inkscape:path-effect
       effect="spiro"
       id="path-effect335"
       is_visible="true"
       lpeversion="1" />
    <inkscape:path-effect
       effect="spiro"
       id="path-effect327"
       is_visible="true"
       lpeversion="1" />
    <inkscape:path-effect
       effect="spiro"
       id="path-effect321"
       is_visible="true"
       lpeversion="1" />
    <inkscape:path-effect
       effect="spiro"
       id="path-effect315"
       is_visible="true"
       lpeversion="1" />
  </defs>
  <sodipodi:namedview
     id="namedview21"
     pagecolor="#505050"
     bordercolor="#eeeeee"
     borderopacity="1"
     inkscape:pageshadow="0"
     inkscape:pageopacity="0"
     inkscape:pagecheckerboard="0"
     showgrid="false"
     inkscape:zoom="0.64"
     inkscape:cx="46.09375"
     inkscape:cy="207.8125"
     inkscape:window-width="1857"
     inkscape:window-height="1057"
     inkscape:window-x="-8"
     inkscape:window-y="-8"
     inkscape:window-maximized="1"
     inkscape:current-layer="layer3" />
  <!-- Font Awesome Free 5.15.4 by @fontawesome - https://fontawesome.com License - https://fontawesome.com/license/free (Icons: CC BY 4.0, Fonts: SIL OFL 1.1, Code: MIT License) -->
  <g
     inkscape:groupmode="layer"
     id="layer2"
     inkscape:label="Layer 1"
     style="display:none">
    <path
       style="fill:none;stroke:#000000;stroke-width:1px;stroke-linecap:butt;stroke-linejoin:miter;stroke-opacity:1"
       d="M 32,416 V 65.811321 c 0,-1.408816 -0.01791,-2.817713 0,-4.226415 C 32.19813,46.001861 38.498313,30.576446 49.266137,19.310368 60.03396,8.0442899 75.158821,1.0532714 90.716981,0.1509434"
       id="path313"
       inkscape:path-effect="#path-effect315"
       inkscape:original-d="M 32,416 V 65.811321 c 0,0 10e-4,-2.81661 0,-4.226415 C 31.999,60.175101 71.145654,20.629931 90.716981,0.1509434" />
    <path
       style="fill:none;stroke:#000000;stroke-width:1px;stroke-linecap:butt;stroke-linejoin:miter;stroke-opacity:1"
       d="M 264.69809,0 90.716981,0.1509434"
       id="path317" />
    <path
       style="fill:none;stroke:#000000;stroke-width:1px;stroke-linecap:butt;stroke-linejoin:miter;stroke-opacity:1"
       d="m 319.77236,64.039859 c -0.0233,-2.282335 -0.16582,-4.563449 -0.42693,-6.830918 C 317.72607,43.146394 311.40343,29.666454 301.62578,19.43048 291.84814,9.1945049 278.67176,2.2614092 264.69809,0"
       id="path319"
       inkscape:path-effect="#path-effect321"
       inkscape:original-d="m 319.77236,64.039859 c -0.14131,-2.275972 -0.28362,-4.552945 -0.42693,-6.830918 C 319.20212,54.930968 282.91487,19.070647 264.69809,0" />
    <path
       style="fill:none;stroke:#000000;stroke-width:1px;stroke-linecap:butt;stroke-linejoin:miter;stroke-opacity:1"
       d="M 320,256 319.77236,64.039859"
       id="path323" />
    <path
       style="fill:none;stroke:#000000;stroke-width:1px;stroke-linecap:butt;stroke-linejoin:miter;stroke-opacity:1"
       d="m 320,256 c 3.61327,-0.3251 7.24773,-0.41452 10.87261,-0.26749 16.1281,0.65416 31.98343,6.08156 45.34359,15.13967 13.36016,9.05812 24.21685,21.68953 31.50424,36.09221 1.09314,2.16047 2.10863,4.36172 2.98853,6.61746 3.82362,9.80235 5.01358,20.43585 5.33665,30.95259 0.32993,10.74013 -0.20745,21.49021 0,32.2334 0.0234,1.21216 0.0565,2.42675 0.21347,3.62893 0.74838,5.73128 4.3341,10.84433 8.96558,14.30223 3.4996,2.61283 7.63679,4.39389 11.96183,5.00053 4.32505,0.60664 8.83008,0.0213 12.80025,-1.79854 5.93412,-2.72007 10.44865,-8.13718 12.5945,-14.30223 1.16499,-3.34704 1.67549,-6.9205 1.49427,-10.45985"
       id="path325"
       inkscape:path-effect="#path-effect327"
       inkscape:original-d="m 320,256 c 3.6252,-0.0882 7.2494,-0.17733 10.87261,-0.26749 3.6232,-0.0902 51.23289,34.15559 76.84783,51.23188 25.61494,17.07629 1.99335,4.41264 2.98853,6.61746 0.99517,2.20481 3.55877,20.63606 5.33665,30.95259 1.77789,10.31654 0.001,21.48993 0,32.2334 -10e-4,10.74347 0.14331,2.42028 0.21347,3.62893 0.0702,1.20864 5.97805,9.53582 8.96558,14.30223 2.98752,4.76641 16.50905,2.13566 24.76208,3.20199 8.25302,1.06633 8.39733,-9.53382 12.5945,-14.30223 4.19717,-4.76841 0.99718,-6.97223 1.49427,-10.45985" />
    <path
       style="fill:none;stroke:#000000;stroke-width:1px;stroke-linecap:butt;stroke-linejoin:miter;stroke-opacity:1"
       d="m 464,215.2 0.0755,157.93891"
       id="path329" />
    <path
       style="fill:none;stroke:#000000;stroke-width:1px;stroke-linecap:butt;stroke-linejoin:miter;stroke-opacity:1"
       d="m 377.40824,59.343603 c 0,0 32.44686,31.166065 38.59176,38.556397 l -0.16785,66.04204"
       id="path331" />
    <path
       style="fill:none;stroke:#000000;stroke-width:1px;stroke-linecap:butt;stroke-linejoin:miter;stroke-opacity:1"
       d="m 464,215.2 c -0.93907,-0.12714 -1.8749,-0.2782 -2.80628,-0.453 -12.00011,-2.25212 -23.19926,-8.57141 -31.33106,-17.67902 -8.1318,-9.10762 -13.14694,-20.94834 -14.03051,-33.12594"
       id="path333"
       inkscape:path-effect="#path-effect335"
       inkscape:original-d="m 464,215.2 c -0.93443,-0.15 -1.86985,-0.301 -2.80628,-0.453 -0.93642,-0.15201 -30.24005,-33.86897 -45.36157,-50.80496" />
    <path
       style="fill:none;stroke:#000000;stroke-width:1px;stroke-linecap:butt;stroke-linejoin:miter;stroke-opacity:1"
       d="m 377.40824,59.343603 c -0.84606,-0.971924 -1.57407,-2.046511 -2.16296,-3.19266 -1.33358,-2.595524 -1.93783,-5.560945 -1.72617,-8.471337 0.21167,-2.910392 1.23863,-5.75718 2.93372,-8.132436"
       id="path337"
       inkscape:path-effect="#path-effect339"
       inkscape:original-d="m 377.40824,59.343603 c -0.71999,-1.06322 -1.44097,-2.12744 -2.16296,-3.19266 -0.72198,-1.065219 0.80603,-11.068182 1.20755,-16.603773" />
    <path
       style="fill:none;stroke:#000000;stroke-width:1px;stroke-linecap:butt;stroke-linejoin:miter;stroke-opacity:1"
       d="m 392.75472,23.698113 c 0.90695,-0.547913 1.86943,-1.003829 2.86792,-1.35849 2.8322,-1.005995 5.95545,-1.176686 8.88041,-0.485331 2.92497,0.691355 5.64128,2.242304 7.72337,4.409859"
       id="path341"
       inkscape:path-effect="#path-effect343"
       inkscape:original-d="m 392.75472,23.698113 c 0.95697,-0.45183 1.91295,-0.90466 2.86792,-1.35849 0.95498,-0.453831 11.07018,2.617352 16.60378,3.924528" />
    <path
       style="fill:none;stroke:#000000;stroke-width:1px;stroke-linecap:butt;stroke-linejoin:miter;stroke-opacity:1"
       d="M 376.45283,39.54717 392.75472,23.698113"
       id="path345" />
    <path
       style="fill:none;stroke:#000000;stroke-width:1px;stroke-linecap:butt;stroke-linejoin:miter;stroke-opacity:1"
       d="M 412.22642,26.264151 493.2,107.3 c 0,0 3.12553,3.28528 4.68679,4.92642 1.86268,2.76835 3.72427,5.53559 5.58491,8.30188 1.00731,1.98846 2.01358,3.97584 3.01887,5.96227 1.00731,2.66772 2.01358,5.33433 3.01886,8 0.57963,2.81866 1.15824,5.63622 1.73585,8.45283 0.20227,1.86267 0.40352,3.72427 0.60378,5.5849"
       id="path347" />
    <path
       style="fill:none;stroke:#000000;stroke-width:1px;stroke-linecap:butt;stroke-linejoin:miter;stroke-opacity:1"
       d="M 511.84906,148.5283 V 381.13208"
       id="path349" />
    <path
       style="fill:none;stroke:#000000;stroke-width:1px;stroke-linecap:butt;stroke-linejoin:miter;stroke-opacity:1"
       d="m 367.69811,371.62264 c 0.11617,2.42118 0.3176,4.83827 0.60378,7.24528 1.48447,12.48545 5.31237,24.77734 11.92453,35.4717 9.51067,15.38234 24.91388,27.13992 42.41509,31.69812 21.19338,5.51982 44.78768,0.099 61.88679,-13.58491 15.55654,-12.4494 25.67892,-31.46381 27.32076,-51.32075"
       id="path351"
       inkscape:path-effect="#path-effect353"
       inkscape:original-d="m 367.69811,371.62264 c 0.20226,2.4161 0.40352,4.83119 0.60378,7.24528 0.20026,2.4141 7.95068,23.6488 11.92453,35.4717 3.97384,11.8229 28.27773,21.13308 42.41509,31.69812 14.13736,10.56503 41.25886,-9.05561 61.88679,-13.58491 20.62793,-4.5293 18.21484,-34.21283 27.32076,-51.32075" />
    <path
       style="fill:none;stroke:#000000;stroke-width:1px;stroke-linecap:butt;stroke-linejoin:miter;stroke-opacity:1"
       d="m 320,304 c 4.32938,-0.41879 8.7121,-0.28307 13.00727,0.4028 9.61349,1.53513 18.90128,5.98851 25.40248,13.2349 5.6525,6.3004 9.03284,14.59761 9.39251,23.05435"
       id="path355"
       inkscape:path-effect="#path-effect357"
       inkscape:original-d="m 320,304 c 4.33676,0.13527 8.67251,0.26953 13.00727,0.4028 4.33476,0.13326 16.93598,8.82427 25.40248,13.2349 8.46649,4.41064 6.26267,15.37057 9.39251,23.05435" />
    <path
       style="fill:none;stroke:#000000;stroke-width:1px;stroke-linecap:butt;stroke-linejoin:miter;stroke-opacity:1"
       d="m 367.69811,371.62264 0.10415,-30.93059"
       id="path359" />
    <path
       style="fill:none;stroke:#000000;stroke-width:1px;stroke-linecap:butt;stroke-linejoin:miter;stroke-opacity:1"
       d="M 320,304 V 416 H 32"
       id="path361" />
    <path
       style="fill:none;stroke:#000000;stroke-width:1px;stroke-linecap:butt;stroke-linejoin:miter;stroke-opacity:1"
       d="M 96,64 V 192 H 256 V 64 Z"
       id="path363" />
  </g>
  <g
     inkscape:groupmode="layer"
     id="layer3"
     inkscape:label="Layer 2">
    <rect
       style="display:inline;fill:#ffffff;stroke-width:1.02419"
       id="rect393"
       width="301.43713"
       height="73.25959"
       x="10.125536"
       y="423.90738"
       rx="12.837337" />
    <path
       style="fill:#ffffff;stroke-width:0.51887"
       d="M 73.173113,7.4032177 C 60.986116,11.389428 49.529403,19.355645 42.836017,31.593359 39.178192,38.280199 36.227616,45.73961 35.275092,53.454602 35.191469,170.03617 35.107297,286.61775 35.022515,403.19933 c 82.796995,0 165.593995,0 248.390985,0 0,-34.90297 0,-69.80594 0,-104.7089 1.16462,-3.33943 3.78927,-5.64808 7.12437,-5.39324 15.89689,-0.62291 32.8974,7.21307 40.76558,22.97267 3.37924,6.11286 4.80511,13.21234 4.53205,20.32023 0.60268,14.03133 -0.40254,28.2467 1.82815,42.13885 3.49886,21.66902 16.30713,41.76535 34.84293,50.89912 15.68548,8.03212 34.57579,6.97881 49.78552,-1.48836 13.67791,-7.2524 24.228,-20.60854 29.42378,-36.17426 3.28422,-8.6569 3.74603,-18.08314 3.5957,-27.25385 0.28899,-74.39369 -0.092,-148.78889 -0.10948,-223.18313 -2.20094,-12.02144 -7.30927,-23.50443 -15.5476,-31.94134 -23.43648,-26.3248 -47.10409,-52.413801 -71.15347,-78.037777 -2.01071,-2.411261 -4.33495,-4.677495 -7.54991,-4.249038 -4.05324,-0.747025 -6.34905,3.874639 -9.26149,6.104752 -3.24094,3.606897 -7.18672,6.79252 -9.61344,11.10883 -0.6049,3.522625 -1.07627,7.964193 2.01838,10.283835 11.24006,13.053219 23.23187,25.270309 34.59472,38.151168 2.21209,4.131368 0.56003,9.31686 1.03519,13.90411 -0.002,19.45402 -0.35552,38.95852 -0.13604,58.38107 2.75057,14.92694 11.25968,28.75767 23.80457,35.72356 4.98557,3.15958 10.85643,4.17876 16.12376,6.20013 2.73226,2.00203 3.51417,5.30744 3.04071,8.7212 -0.0599,52.82777 0.1195,105.67943 -0.0897,158.4923 -2.44031,12.13697 -11.64008,23.05129 -23.28053,24.30288 -12.49075,1.52043 -25.60774,-7.7857 -28.8965,-21.15936 -2.1003,-12.06772 -0.12908,-24.28989 -0.85242,-36.45118 -0.32824,-14.0442 -2.10774,-28.5767 -9.05156,-40.71469 -10.52457,-20.58751 -29.23986,-36.45105 -50.2657,-41.27107 -7.25487,-1.79578 -14.67722,-1.92398 -22.03459,-1.94266 -3.27918,-1.34741 -5.08345,-4.87471 -4.47833,-8.6387 -0.95368,-61.52829 -0.29983,-123.20118 -0.91236,-184.650301 0.67394,-22.717177 -12.88178,-44.868256 -31.91353,-53.855012 -4.86814,-2.3521974 -9.975,-4.4277556 -15.38465,-3.6890698 -52.62951,0 -105.25902,0 -157.888528,0 -1.445341,0.4337066 -2.89068,0.8674139 -4.336022,1.3011205 z M 158.97346,57.353722 c 24.13271,0 48.26539,0 72.3981,0 3.32595,1.29906 5.18423,4.931041 4.48808,8.71443 0,41.081618 0,82.163218 0,123.244828 -1.18648,3.64151 -4.50371,5.67613 -7.95923,4.91393 -47.10834,0 -94.21669,0 -141.325048,0 -3.32594,-1.29907 -5.184234,-4.93105 -4.488077,-8.71444 0,-41.0816 0,-82.1632 0,-123.244819 1.186481,-3.641521 4.503707,-5.676141 7.959219,-4.913929 22.975656,0 45.951296,0 68.926956,0 z"
       id="path2765" />
    <path
       style="fill:#ffffff;stroke-width:0.51887"
       d="m 158.39429,11.389289 c -27.40077,0.04701 -54.80155,0.09403 -82.202329,0.141036 -13.123632,4.31633 -25.580245,13.377166 -31.620901,27.237631 -2.989672,6.842509 -5.229509,14.055022 -4.546694,21.73093 -0.09363,112.603624 -0.18708,225.207264 -0.280362,337.810894 79.660636,-0.0877 159.321276,-0.17534 238.981916,-0.26298 0.30507,-33.13106 -0.0116,-66.27688 0.75834,-99.39838 -0.33808,-6.68183 5.98845,-11.05174 11.56009,-10.49597 17.66503,-0.5662 36.30824,8.69657 44.754,26.27821 5.59876,10.50166 4.50218,22.99 5.04941,34.63585 0.60579,13.57662 -0.33039,27.44901 4.47198,40.34645 6.83913,20.80918 24.22002,37.68895 44.62787,40.03732 18.43749,2.04843 37.54923,-6.71811 48.84598,-22.8725 5.80742,-8.37513 10.45214,-18.34619 11.10391,-28.96984 0.68609,-45.11367 0.24022,-90.24123 0.37875,-135.36047 0,-34.13418 0,-68.26835 0,-102.40251 -2.32525,-9.27908 -6.23428,-18.18834 -12.61194,-24.9567 -21.96351,-25.281412 -44.7451,-49.750943 -67.26403,-74.378055 -2.86794,-2.609726 -5.17987,-6.460953 -8.63234,-8.106816 -3.16576,-0.434617 -4.97557,3.485339 -7.36451,5.244313 -2.61151,2.901358 -5.79846,5.489146 -7.80429,8.886679 -1.2424,4.12072 3.05371,6.09787 4.89775,8.922271 10.39902,12.066592 21.74065,23.194101 31.55117,35.846023 2.30634,4.319339 0.66743,9.709255 1.20868,14.462815 0.17574,20.38096 -0.14638,40.85178 0.29014,61.17592 3.94425,13.50838 12.45012,26.27198 25.03353,31.13902 5.27937,2.64349 12.39363,2.66995 15.87292,8.41646 2.33513,6.44784 1.27699,13.68332 1.70799,20.46787 0.17218,49.32068 0.16443,98.66429 0.021,147.97179 -2.96335,14.03691 -13.42546,26.63518 -26.87357,28.47485 -17.38536,2.71009 -35.85339,-13.4968 -35.33224,-33.17697 -0.86647,-17.86256 1.14579,-35.76664 -3.08083,-53.20171 -4.38637,-16.11068 -14.40784,-30.03963 -26.57108,-40.07282 -10.91104,-8.86292 -24.12801,-13.89112 -37.36694,-14.66265 -5.39048,-0.59355 -11.73567,1.10516 -15.99121,-3.58271 -3.65361,-4.50094 -2.43491,-11.1569 -2.99174,-16.6834 -0.86895,-59.62956 -0.25225,-119.34961 -1.2422,-178.9284 0.0207,-7.341533 -0.73278,-14.782697 -3.88993,-21.377308 -6.26216,-15.214158 -19.2575,-27.133773 -34.20392,-30.475475 -27.0815,0.04644 -54.16299,0.09288 -81.24448,0.139332 z M 137.1442,52.452516 c 30.4268,0.179684 60.86472,-0.374175 91.28432,0.426642 4.2118,-0.01935 9.5695,0.839854 10.99331,5.988826 1.41718,8.442648 0.56875,17.171531 0.88475,25.725455 -0.0822,33.715331 0.32227,67.440321 -0.29489,101.149561 -0.0174,4.57226 -0.59457,10.37278 -5.14671,12.20806 -5.59691,2.52828 -11.86867,0.80835 -17.74989,1.33504 -42.77901,-0.16165 -85.56406,0.0124 -128.338304,-0.70304 -3.873582,0.22521 -8.0909,-0.97202 -9.976627,-5.05285 -1.758285,-4.574 -0.596911,-9.84505 -1.038476,-14.69186 -0.148556,-37.14197 -0.366379,-74.29183 0.118895,-111.430511 0.15487,-4.881152 0.0385,-11.444966 4.969892,-13.660564 5.931278,-1.870192 12.308429,-0.797487 18.41999,-1.208304 11.95773,-0.08593 23.91582,-0.07319 35.87374,-0.08645 z"
       id="path2804" />
  </g>
</svg>
