<?xml version="1.0" encoding="UTF-8" standalone="no"?>
<svg
   width="22"
   height="22"
   viewBox="0 0 22 22"
   fill="none"
   version="1.1"
   id="svg23"
   sodipodi:docname="dupa.svg"
   inkscape:version="1.1.2 (b8e25be833, 2022-02-05)"
   xmlns:inkscape="http://www.inkscape.org/namespaces/inkscape"
   xmlns:sodipodi="http://sodipodi.sourceforge.net/DTD/sodipodi-0.dtd"
   xmlns="http://www.w3.org/2000/svg"
   xmlns:svg="http://www.w3.org/2000/svg">
  <defs
     id="defs27" />
  <sodipodi:namedview
     id="namedview25"
     pagecolor="#505050"
     bordercolor="#eeeeee"
     borderopacity="1"
     inkscape:pageshadow="0"
     inkscape:pageopacity="0"
     inkscape:pagecheckerboard="0"
     showgrid="false"
     inkscape:zoom="19.272727"
     inkscape:cx="11.025943"
     inkscape:cy="11.363208"
     inkscape:window-width="1857"
     inkscape:window-height="1057"
     inkscape:window-x="-8"
     inkscape:window-y="-8"
     inkscape:window-maximized="1"
     inkscape:current-layer="layer5" />
  <g
     inkscape:groupmode="layer"
     id="layer4"
     inkscape:label="Layer 1"
     style="display:inline">
    <g
       id="g21"
       transform="translate(0.0259434,-0.15566038)">
      <path
         d="m 11.353951,19.974484 c 0.0506,-0.1432 1.2403,-3.5565 1.2403,-7.8059 0,-4.24934 -1.1897,-7.66284 -1.2403,-7.80601 l -0.2162,-0.61147 -0.6472,0.04029 c -0.1048,0.00654 -2.5942798,0.17154 -5.1191998,1.23082 -3.51102,1.47268 -5.36690002,3.94389 -5.36690002,7.14637 0,3.2024 1.85588002,5.6736 5.36690002,7.1464 2.52492,1.0592 5.0141998,1.2243 5.1189998,1.2309 l 0.6474,0.0402 z m -0.4784,-7.8059 c 0,2.9093 -0.616,5.4467 -0.9431397,6.5892 -0.8533301,-0.1151 -2.4055801,-0.3966 -3.9324801,-1.0428 -2.83778,-1.2015 -4.27673,-3.0674 -4.27673,-5.5464 0,-2.47889 1.43895,-4.34501 4.27673,-5.54629 1.52741,-0.64655 3.08033,-0.92802 3.9331501,-1.043 0.3274697,1.14002 0.9424697,3.67047 0.9424697,6.58929 z"
         fill="#ffffff59"
         id="path19"
         sodipodi:nodetypes="cccsccccsccccsccsc"
         inkscape:transform-center-x="0.77830193"
         inkscape:transform-center-y="0.23349056" />
    </g>
  </g>
  <g
     inkscape:groupmode="layer"
     id="layer5"
     inkscape:label="Layer 2"
     style="display:inline">
    <path
       d="m 14.115788,5.2761128 7.218493,3.5908462 0.02417,1.89016 -7.614425,-3.7584932 c 0.09252,-0.5181797 0.299184,-1.1195565 0.371764,-1.722513 z"
       fill="#ffffff59"
       id="path19-6-2"
       sodipodi:nodetypes="ccccc"
       inkscape:transform-center-x="0.72514156"
       inkscape:transform-center-y="0.22910411"
       style="display:inline;stroke-width:0.956139" />
    <path
       d="m 14.168308,10.140902 7.218493,3.590845 0.02417,1.890162 -7.614425,-3.758495 c 0.09252,-0.51818 0.299184,-1.119556 0.371764,-1.722512 z"
       fill="#ffffff59"
       id="path19-6-2-4"
       sodipodi:nodetypes="ccccc"
       inkscape:transform-center-x="0.72514132"
       inkscape:transform-center-y="0.22910389"
       style="display:inline;stroke-width:0.956139" />
    <path
       d="m 14.158837,15.119561 7.218493,3.590846 0.02417,1.890162 -7.614425,-3.758494 c 0.09252,-0.51818 0.299184,-1.119556 0.371765,-1.722514 z"
       fill="#ffffff59"
       id="path19-6-2-48"
       sodipodi:nodetypes="ccccc"
       inkscape:transform-center-x="0.72514144"
       inkscape:transform-center-y="0.22910403"
       style="display:inline;stroke-width:0.956139" />
  </g>
</svg>
