<svg width="22" height="22" viewBox="0 0 22 22" fill="none" xmlns="http://www.w3.org/2000/svg">
<g>
<path d="M8.11564 3.80092L4.44891 0.134187C4.27015 -0.0445664 3.97955 -0.0445664 3.8008 0.134187C3.62204 0.312941 3.62204 0.603545 3.8008 0.782299L7.14397 4.12452L4.1253 7.14319L0.782177 3.80092C0.603423 3.62216 0.312819 3.62216 0.134065 3.80092C-0.0446885 3.97967 -0.0446885 4.27028 0.134065 4.44903L3.8008 8.11576C3.89065 8.20466 4.00795 8.24961 4.1253 8.24961C4.24265 8.24961 4.35996 8.20471 4.44891 8.11576L8.11564 4.44903C8.29439 4.27028 8.29439 3.97967 8.11564 3.80092Z" fill="#02E1A4"/>
<path d="M11.1341 4.98529L9.68019 3.53141C9.14393 2.99515 8.27216 2.99515 7.7359 3.53141L3.55765 7.70965C3.2973 7.97091 3.1543 8.31651 3.1543 8.68407C3.1543 9.05073 3.2973 9.39544 3.55581 9.653C3.99032 10.0866 4.55408 10.665 4.98309 11.1078C5.24159 11.3745 5.5872 11.523 5.95751 11.5258C5.96211 11.5258 5.96576 11.5258 5.96941 11.5258C6.33702 11.5258 6.68168 11.3828 6.94203 11.1215L11.134 6.92954C11.6703 6.39332 11.6703 5.52155 11.1341 4.98529ZM10.4869 6.28237L6.29491 10.4744C6.20691 10.5624 6.07581 10.6055 5.96675 10.6091C5.8439 10.6082 5.72934 10.5596 5.64314 10.4707C5.21048 10.0243 4.64302 9.44219 4.20486 9.00493C4.11871 8.91877 4.07101 8.80508 4.07101 8.68407C4.07101 8.56122 4.11867 8.44572 4.20576 8.35866L8.38401 4.18042C8.47386 4.09057 8.59116 4.04657 8.70851 4.04657C8.82586 4.04657 8.94317 4.09057 9.03302 4.18042L10.4869 5.63336C10.5731 5.72045 10.6208 5.83501 10.6208 5.95786C10.6207 6.08071 10.5731 6.19531 10.4869 6.28237Z" fill="#02E1A4"/>
<path d="M13.1582 9.75942L10.4081 7.00937C10.2294 6.83062 9.93879 6.83062 9.76003 7.00937C9.58128 7.18812 9.58128 7.47873 9.76003 7.65748L12.1856 10.083L10.0836 12.185L7.65718 9.75942C7.47842 9.58067 7.18782 9.58067 7.00907 9.75942C6.83031 9.93818 6.83031 10.2288 7.00907 10.4075L9.75913 13.1576C9.84898 13.2465 9.96629 13.2914 10.0836 13.2914C10.201 13.2914 10.3183 13.2465 10.4081 13.1576L13.1582 10.4075C13.337 10.2287 13.337 9.93818 13.1582 9.75942Z" fill="#02E1A4"/>
<path d="M9.03224 5.63431C8.85349 5.45556 8.56289 5.45556 8.38413 5.63431L5.63407 8.38437C5.45531 8.56313 5.45531 8.85373 5.63407 9.03249C5.72392 9.12139 5.84122 9.16634 5.95857 9.16634C6.07592 9.16634 6.19323 9.12143 6.28218 9.03249L9.03224 6.28242C9.211 6.10363 9.211 5.81306 9.03224 5.63431Z" fill="#02E1A4"/>
<path d="M21.8659 17.5512L19.1159 14.8012C18.9371 14.6224 18.6465 14.6224 18.4678 14.8012L14.8011 18.4679C14.6223 18.6467 14.6223 18.9373 14.8011 19.116L17.5511 21.8661C17.641 21.955 17.7583 21.9999 17.8756 21.9999C17.993 21.9999 18.1103 21.955 18.1992 21.8652C18.378 21.6864 18.378 21.3958 18.1992 21.2171L15.7737 18.7915L18.7923 15.7729L21.2179 18.1993C21.3966 18.3781 21.6872 18.3781 21.866 18.1993C22.0447 18.0206 22.0447 17.73 21.8659 17.5512Z" fill="#02E1A4"/>
<path d="M19.2169 14.9542C19.1903 14.8864 19.1491 14.8277 19.0968 14.7819C18.9401 14.5793 18.2049 13.4454 16.5769 10.8181C16.356 10.4615 15.9902 10.2287 15.574 10.1801C15.1533 10.1315 14.7407 10.2764 14.4401 10.577L10.5671 14.45C10.271 14.747 10.1271 15.155 10.1729 15.5721C10.2188 15.9892 10.4479 16.3577 10.8018 16.5832L14.8792 19.1783C14.9553 19.2269 15.0406 19.2498 15.1258 19.2498C15.2441 19.2498 15.3614 19.204 15.4485 19.1142L19.1152 15.4475C19.2444 15.3182 19.2848 15.1247 19.2169 14.9542ZM15.0625 18.2076L11.2949 15.8104C11.1767 15.7353 11.1006 15.6124 11.085 15.4731C11.0694 15.3337 11.118 15.1972 11.2161 15.0991L15.0891 11.2261C15.178 11.1381 15.2944 11.0895 15.4164 11.0895C15.4338 11.0895 15.4512 11.0904 15.4714 11.0922C15.5511 11.1014 15.7005 11.1408 15.8005 11.3021C17.1581 13.4939 17.8209 14.5609 18.1884 15.0816L15.0625 18.2076Z" fill="#02E1A4"/>
<path d="M16.3657 12.9678C16.187 12.7891 15.8964 12.7891 15.7176 12.9678L12.9676 15.7179C12.7888 15.8966 12.7888 16.1872 12.9676 16.366C13.0574 16.4549 13.1747 16.4998 13.2921 16.4998C13.4094 16.4998 13.5267 16.4549 13.6157 16.366L16.3657 13.6159C16.5445 13.4372 16.5445 13.1466 16.3657 12.9678Z" fill="#02E1A4"/>
<path d="M13.2923 4.58282C13.0393 4.58282 12.834 4.78818 12.834 5.04118V5.95785C12.834 6.21086 13.0393 6.41621 13.2923 6.41621C13.5453 6.41621 13.7507 6.21086 13.7507 5.95785V5.04118C13.7507 4.78818 13.5453 4.58282 13.2923 4.58282Z" fill="#02E1A4"/>
<path d="M16.959 8.24963H16.0423C15.7893 8.24963 15.584 8.45499 15.584 8.70799C15.584 8.961 15.7893 9.16635 16.0423 9.16635H16.959C17.212 9.16635 17.4174 8.961 17.4174 8.70799C17.4174 8.45499 17.212 8.24963 16.959 8.24963Z" fill="#02E1A4"/>
<path d="M16.3658 5.63431C16.1871 5.45556 15.8965 5.45556 15.7177 5.63431L14.8011 6.55098C14.6223 6.72974 14.6223 7.02034 14.8011 7.1991C14.8909 7.288 15.0082 7.33295 15.1256 7.33295C15.2429 7.33295 15.3602 7.28804 15.4492 7.1991L16.3658 6.28242C16.5446 6.10363 16.5446 5.81306 16.3658 5.63431Z" fill="#02E1A4"/>
<path d="M8.70885 15.5831C8.45584 15.5831 8.25049 15.7884 8.25049 16.0414V16.9581C8.25049 17.2111 8.45584 17.4165 8.70885 17.4165C8.96185 17.4165 9.1672 17.2111 9.1672 16.9581V16.0414C9.1672 15.7884 8.96185 15.5831 8.70885 15.5831Z" fill="#02E1A4"/>
<path d="M5.95901 12.833H5.04234C4.78934 12.833 4.58398 13.0384 4.58398 13.2914C4.58398 13.5444 4.78934 13.7497 5.04234 13.7497H5.95901C6.21202 13.7497 6.41737 13.5444 6.41737 13.2914C6.41737 13.0384 6.21202 12.833 5.95901 12.833Z" fill="#02E1A4"/>
<path d="M7.19886 14.8012C7.0201 14.6224 6.7295 14.6224 6.55074 14.8012L5.63407 15.7179C5.45531 15.8966 5.45531 16.1872 5.63407 16.366C5.72392 16.4549 5.84122 16.4998 5.95857 16.4998C6.07593 16.4998 6.19323 16.4549 6.28218 16.366L7.19886 15.4493C7.37761 15.2705 7.37761 14.9799 7.19886 14.8012Z" fill="#02E1A4"/>
</g>
</svg>
