<svg width="22" height="22" viewBox="0 0 22 22" fill="none" xmlns="http://www.w3.org/2000/svg">
<g>
<path d="M14.0938 14.3042H22V16.023H13.8232C13.9225 15.4949 14.0159 14.9187 14.0938 14.3042ZM14.3086 10.9956C14.3086 11.2858 14.3032 11.5724 14.2935 11.855H22V10.1363H14.2935C14.3032 10.4187 14.3086 10.7054 14.3086 10.9956ZM13.7987 5.83939C13.9001 6.36542 13.9962 6.9418 14.0771 7.55814H22V5.83939H13.7987ZM11.3495 18.8015C11.4001 18.6583 12.5898 15.245 12.5898 10.9956C12.5898 6.74626 11.4001 3.33276 11.3495 3.18959L11.1333 2.57812L10.4861 2.61841C10.3813 2.62495 7.89182 2.78995 5.3669 3.84923C1.85588 5.32191 0 7.79312 0 10.9956C0 14.198 1.85588 16.6692 5.3669 18.142C7.89182 19.2012 10.3811 19.3663 10.4859 19.3729L11.1333 19.4131L11.3495 18.8015ZM10.8711 10.9956C10.8711 13.9049 10.2551 16.4423 9.92796 17.5848C9.07463 17.4697 7.52238 17.1882 5.99548 16.542C3.1577 15.3405 1.71875 13.4746 1.71875 10.9956C1.71875 8.51671 3.1577 6.65059 5.99548 5.44931C7.52289 4.80276 9.07581 4.52129 9.92863 4.40631C10.2561 5.54633 10.8711 8.07678 10.8711 10.9956Z" fill="#3c33d6"/>
</g>
</svg>
