<svg width="16" height="16" viewBox="0 0 16 16" fill="none" xmlns="http://www.w3.org/2000/svg">
<path d="M11.7321 0H11.5197C11.1216 0 10.7485 0.19528 10.5216 0.522467L9.75122 1.63356C9.34744 2.2159 8.70944 2.54983 8.00088 2.54983C8.00076 2.54983 8.0006 2.54983 8.00048 2.54983C7.2917 2.54971 6.6537 2.21552 6.25005 1.63293L5.48077 0.52281C5.2539 0.195437 4.88074 0 4.48249 0H4.35234C4.22499 0 4.12706 0.112718 4.14462 0.238843C4.1605 0.352624 4.17312 0.442842 4.17656 0.466186C4.33765 1.36609 4.80034 2.25193 5.44655 2.89752C5.95067 3.40114 6.80927 4.00148 8.03692 4.00148C9.25157 4.00148 10.0976 3.40292 10.5934 2.90083C11.2296 2.25649 11.693 1.38462 11.8981 0.445686C11.9005 0.434436 11.916 0.357967 11.9376 0.251655C11.9639 0.12175 11.8646 0 11.7321 0Z" fill="white"/>
<path d="M9.91536 11.9172H14.3192C14.4351 11.9172 14.529 11.8233 14.529 11.7075V11.2735C14.529 11.1577 14.4351 11.0638 14.3192 11.0638H9.91533C9.66242 11.0638 9.4448 10.8695 9.43292 10.6168C9.4202 10.3471 9.63514 10.1245 9.90208 10.1245H14.3192C14.4351 10.1245 14.529 10.0306 14.529 9.91471V9.52009C14.529 9.40424 14.4351 9.31034 14.3192 9.31034H9.91533C9.66242 9.31034 9.4448 9.11599 9.43292 8.86337C9.4202 8.59365 9.63514 8.371 9.90208 8.371H14.3192C14.4351 8.371 14.529 8.27709 14.529 8.16125V6.74704L14.4787 6.64732C14.0255 5.74816 13.7804 4.74073 13.7701 3.73392C13.7597 2.72711 13.9841 1.71481 14.4187 0.806716C14.5049 0.626685 14.4904 0.417623 14.3792 0.250718C14.2724 0.0904059 14.0873 0 13.8947 0H13.1183C13.0185 0 12.9325 0.070406 12.9127 0.168249C12.8284 0.584591 12.8177 0.636872 12.8156 0.64631C12.573 1.75662 12.0211 2.79171 11.2616 3.56086C10.3701 4.4637 9.25492 4.94089 8.03668 4.94089C6.81062 4.94089 5.68528 4.46411 4.78241 3.56208C4.00197 2.78243 3.44366 1.71206 3.25057 0.625466C3.24782 0.610029 3.24398 0.583873 3.18798 0.181093C3.1736 0.0774059 3.08495 0 2.98023 0H2.09408C1.93533 0 1.78005 0.0605623 1.67151 0.176406C1.51633 0.34203 1.47639 0.577529 1.56152 0.780934L1.70214 1.11684C2.40226 2.7889 2.38298 4.69854 1.64926 6.35613L1.47073 6.75944V8.18091C1.47073 8.29675 1.56464 8.39065 1.68048 8.39065H6.07543C6.32834 8.39065 6.54596 8.585 6.55784 8.83762C6.57056 9.10734 6.35562 9.32999 6.08869 9.32999H1.68045C1.56461 9.32999 1.4707 9.4239 1.4707 9.53974V9.93437C1.4707 10.0502 1.56461 10.1441 1.68045 10.1441H6.0754C6.32831 10.1441 6.54593 10.3385 6.55781 10.5911C6.57053 10.8608 6.35559 11.0835 6.08865 11.0835H1.68045C1.56461 11.0835 1.4707 11.1774 1.4707 11.2932V11.7271C1.4707 11.843 1.56461 11.9369 1.68045 11.9369H6.0754C6.32831 11.9369 6.54593 12.1312 6.55781 12.3839C6.57053 12.6536 6.35559 12.8762 6.08865 12.8762H1.68045C1.56461 12.8762 1.4707 12.9701 1.4707 13.086V13.9643C1.4707 14.5104 1.83001 14.9914 2.3537 15.1464L2.57751 15.2126C4.35135 15.7375 6.17522 15.9999 7.9998 15.9999C9.82389 15.9999 11.6487 15.7374 13.4221 15.2126L13.6459 15.1463C14.1696 14.9914 14.5289 14.5103 14.5289 13.9643V13.0663C14.5289 12.9504 14.435 12.8565 14.3192 12.8565H9.90208V12.8565C9.63514 12.8565 9.42023 12.6339 9.43292 12.3641C9.44483 12.1116 9.66245 11.9172 9.91536 11.9172Z" fill="white"/>
</svg>
