<svg width="16" height="16" viewBox="0 0 16 16" fill="none" xmlns="http://www.w3.org/2000/svg">
<g clip-path="url(#clip0_156_15)">
<path d="M15.584 13.6039L9.31005 7.33L1.98005 0H1.40721L1.29024 0.297219C0.981522 1.08172 0.849616 1.88409 0.908835 2.6175C0.976335 3.4535 1.29393 4.17728 1.82733 4.71069L7.54952 10.4329L8.30427 9.67813L13.5944 15.5935C14.1207 16.1198 15.0265 16.151 15.584 15.5935C16.1325 15.045 16.1325 14.1525 15.584 13.6039Z" fill="white"/>
<path d="M4.89785 9.10754L0.416258 13.5891C-0.132242 14.1376 -0.132242 15.0302 0.416258 15.5787C0.93732 16.0997 1.83873 16.1457 2.40579 15.5787L6.88741 11.097L4.89785 9.10754Z" fill="white"/>
<path d="M15.3206 2.66404L12.7784 5.20623L12.1151 4.54304L14.6574 2.00082L13.9942 1.33764L11.452 3.87982L10.7888 3.21664L13.331 0.674448L12.6679 0.0112915L9.35192 3.32723C8.94626 3.73289 8.70404 4.27151 8.66979 4.84395C8.66114 4.98898 8.62826 5.13164 8.57373 5.26732L10.7278 7.42135C10.8634 7.36676 11.0061 7.33392 11.1511 7.32526C11.7236 7.2911 12.2622 7.04882 12.6679 6.64317L15.9838 3.32726L15.3206 2.66404Z" fill="white"/>
</g>
<defs>
<clipPath id="clip0_156_15">
<rect width="16" height="16" fill="white"/>
</clipPath>
</defs>
</svg>
