<svg width="16" height="16" viewBox="0 0 16 16" fill="none" xmlns="http://www.w3.org/2000/svg">
<path fill-rule="evenodd" clip-rule="evenodd" d="M3.94142 1.02005C2.94511 1.14343 2.11162 1.5473 1.40379 2.24975C0.770521 2.87818 0.389097 3.54456 0.167452 4.40983C-0.217442 5.91234 0.0624128 7.39182 0.994292 8.78084C1.59183 9.67148 2.3624 10.489 3.77968 11.7357C4.68123 12.5288 7.42894 14.8405 7.56234 14.9181C7.68801 14.9912 7.73471 15 8 15C8.26513 15 8.31209 14.9912 8.43766 14.9182C8.57143 14.8405 11.3254 12.5233 12.2203 11.7355C13.6415 10.4844 14.409 9.67028 15.0057 8.78084C15.9376 7.39182 16.2174 5.91234 15.8325 4.40983C15.6109 3.54456 15.2295 2.87818 14.5962 2.24975C13.9652 1.62351 13.2896 1.26213 12.4039 1.07706C11.9616 0.984598 11.1422 0.976521 10.7527 1.06072C9.67325 1.2941 8.84332 1.82803 8.08597 2.77632L8 2.88398L7.91403 2.77632C7.16988 1.84453 6.35254 1.31065 5.3115 1.07635C5.00076 1.00643 4.28812 0.977137 3.94142 1.02005Z" fill="white"/>
</svg>
