<svg width="14" height="14" viewBox="0 0 14 14" fill="none" xmlns="http://www.w3.org/2000/svg">
<path d="M0.700195 4.2C0.700195 1.83804 2.0285 0.970413 3.00435 0.756756C3.31183 0.689436 3.61134 0.848195 3.8002 1.1L5.07982 2.80616C5.37841 3.20428 5.33882 3.76138 4.98693 4.11327L4.00985 5.09035C3.70549 5.39471 3.63185 5.85866 3.8615 6.2227C4.20134 6.76141 4.7809 7.58071 5.6002 8.4C6.41949 9.2193 7.23878 9.79886 7.77749 10.1387C8.14154 10.3683 8.60549 10.2947 8.90985 9.99035L9.88693 9.01327C10.2388 8.66138 10.7959 8.62179 11.194 8.92038L12.9002 10.2C13.152 10.3889 13.3108 10.6884 13.2434 10.9958C13.0298 11.9717 12.1622 13.3 9.8002 13.3C7.0002 13.3 4.9002 11.2 3.8502 10.15C2.8002 9.1 0.700195 7 0.700195 4.2Z" fill="white"/>
</svg>
